<?xml version="1.0" encoding="UTF-8"?>
<!-- Generator: Adobe Illustrator 22.0.0, SVG Export Plug-In . SVG Version: 6.00 Build 0)  -->
<svg xmlns="http://www.w3.org/2000/svg" xmlns:xlink="http://www.w3.org/1999/xlink" version="1.1" x="0px" y="0px" viewBox="0 0 500 130" style="enable-background:new 0 0 500 130;" xml:space="preserve">
<style type="text/css">
	.st0{fill:#00B1E2;}
	.st1{fill:#243B54;}
	.st2{fill:#FFFFFF;}
	.st3{fill:#B3B3B3;}
	.st4{fill:#243B53;}
	.st5{fill:#1D1D1B;}
	.st6{fill:#3F3F3D;}
	.st7{fill:#777776;}
	.st8{fill:#BBBBBB;}
</style>
<g id="Ebene_1">
</g>
<g id="Isolationsmodus">
	<g>
		<path class="st2" d="M108.5,63.5c-0.2-0.2-0.3-0.4-0.3-0.6V11.5c0-0.3,0.1-0.5,0.3-0.6c0.2-0.2,0.4-0.3,0.6-0.3h19    c3.8,0,7.1,0.7,10,2c2.9,1.3,5.1,3.2,6.6,5.7c1.6,2.4,2.4,5.2,2.4,8.4v21c0,3.2-0.8,6-2.4,8.4c-1.6,2.4-3.8,4.3-6.6,5.7    c-2.9,1.3-6.2,2-10,2h-19C108.9,63.8,108.6,63.7,108.5,63.5z M119.3,54.6h9.2c2.3,0,4.2-0.8,5.7-2.4c1.4-1.6,2.2-3.7,2.2-6.3V28.4    c0-2.6-0.7-4.7-2.2-6.3c-1.4-1.6-3.4-2.4-5.8-2.4h-9.1c-0.3,0-0.4,0.1-0.4,0.4v34C118.9,54.4,119,54.6,119.3,54.6z"></path>
		<path class="st2" d="M178.6,25.8c2.6,1.1,4.6,2.7,6,4.7c1.4,2,2.2,4.2,2.2,6.6v25.7c0,0.3-0.1,0.5-0.3,0.6    c-0.2,0.2-0.4,0.3-0.6,0.3H177c-0.3,0-0.5-0.1-0.6-0.3c-0.2-0.2-0.3-0.4-0.3-0.6v-2.5c0-0.2-0.1-0.3-0.2-0.3c-0.1,0-0.2,0-0.3,0.2    c-2.1,2.8-5.5,4.2-10.3,4.2c-3.9,0-7.1-1-9.6-2.9c-2.4-1.9-3.6-4.8-3.6-8.5c0-3.9,1.4-6.9,4.1-9.1c2.7-2.2,6.6-3.2,11.7-3.2h7.7    c0.3,0,0.4-0.1,0.4-0.4v-1.7c0-1.7-0.5-3-1.5-3.9c-1-0.9-2.5-1.4-4.6-1.4c-1.6,0-2.9,0.3-3.9,0.8c-1,0.6-1.7,1.3-2,2.4    c-0.2,0.6-0.5,0.8-1,0.8l-9.2-1.2c-0.6-0.1-0.9-0.3-0.8-0.7c0.2-2.1,1.1-4.1,2.5-5.8c1.5-1.7,3.5-3.1,5.9-4c2.5-1,5.2-1.4,8.2-1.4    C173.1,24.1,176,24.7,178.6,25.8z M173.8,54.6c1.5-1.2,2.3-2.7,2.3-4.5v-2.7c0-0.3-0.1-0.4-0.4-0.4h-5.5c-2.3,0-4.1,0.4-5.4,1.3    c-1.3,0.9-1.9,2.1-1.9,3.6c0,1.4,0.5,2.4,1.4,3.2c1,0.8,2.3,1.2,3.9,1.2C170.5,56.4,172.3,55.8,173.8,54.6z"></path>
		<path class="st2" d="M214.1,33c-0.2,0.2-0.4,0.3-0.6,0.3h-7.3c-0.3,0-0.4,0.1-0.4,0.4v16.1c0,1.7,0.3,2.9,1,3.7    c0.7,0.8,1.8,1.2,3.3,1.2h2.5c0.3,0,0.5,0.1,0.6,0.3c0.2,0.2,0.3,0.4,0.3,0.6v7.2c0,0.6-0.3,0.9-0.9,1c-2.1,0.1-3.6,0.2-4.6,0.2    c-4.2,0-7.3-0.7-9.4-2.1c-2.1-1.4-3.1-4-3.2-7.9V33.7c0-0.3-0.1-0.4-0.4-0.4h-4.3c-0.3,0-0.5-0.1-0.6-0.3    c-0.2-0.2-0.3-0.4-0.3-0.6v-6.8c0-0.3,0.1-0.5,0.3-0.6c0.2-0.2,0.4-0.3,0.6-0.3h4.3c0.3,0,0.4-0.1,0.4-0.4v-9    c0-0.3,0.1-0.5,0.3-0.6c0.2-0.2,0.4-0.3,0.6-0.3h8.5c0.3,0,0.5,0.1,0.6,0.3c0.2,0.2,0.3,0.4,0.3,0.6v9c0,0.3,0.1,0.4,0.4,0.4h7.3    c0.3,0,0.5,0.1,0.6,0.3c0.2,0.2,0.3,0.4,0.3,0.6v6.8C214.4,32.6,214.3,32.9,214.1,33z"></path>
		<path class="st2" d="M245.2,25.8c2.6,1.1,4.6,2.7,6,4.7c1.4,2,2.2,4.2,2.2,6.6v25.7c0,0.3-0.1,0.5-0.3,0.6    c-0.2,0.2-0.4,0.3-0.6,0.3h-8.9c-0.3,0-0.5-0.1-0.6-0.3c-0.2-0.2-0.3-0.4-0.3-0.6v-2.5c0-0.2-0.1-0.3-0.2-0.3    c-0.1,0-0.2,0-0.3,0.2c-2.1,2.8-5.5,4.2-10.3,4.2c-3.9,0-7.1-1-9.6-2.9c-2.4-1.9-3.6-4.8-3.6-8.5c0-3.9,1.4-6.9,4.1-9.1    c2.7-2.2,6.6-3.2,11.7-3.2h7.7c0.3,0,0.4-0.1,0.4-0.4v-1.7c0-1.7-0.5-3-1.5-3.9c-1-0.9-2.5-1.4-4.6-1.4c-1.6,0-2.9,0.3-3.9,0.8    c-1,0.6-1.7,1.3-2,2.4c-0.2,0.6-0.5,0.8-1,0.8l-9.2-1.2c-0.6-0.1-0.9-0.3-0.8-0.7c0.2-2.1,1.1-4.1,2.5-5.8c1.5-1.7,3.5-3.1,5.9-4    c2.5-1,5.2-1.4,8.2-1.4C239.7,24.1,242.6,24.7,245.2,25.8z M240.4,54.6c1.5-1.2,2.3-2.7,2.3-4.5v-2.7c0-0.3-0.1-0.4-0.4-0.4h-5.5    c-2.3,0-4.1,0.4-5.4,1.3c-1.3,0.9-1.9,2.1-1.9,3.6c0,1.4,0.5,2.4,1.4,3.2c1,0.8,2.3,1.2,3.9,1.2C237.1,56.4,238.9,55.8,240.4,54.6    z"></path>
		<g>
			<path class="st0" d="M271,62.4c-2.7-1.4-4.8-3.4-6.3-5.9c-1.5-2.6-2.2-5.5-2.2-8.8V26.7c0-3.3,0.7-6.2,2.2-8.7     c1.5-2.5,3.6-4.5,6.3-5.9c2.7-1.4,5.8-2.1,9.3-2.1c3.5,0,6.7,0.7,9.3,2.1c2.7,1.4,4.8,3.3,6.3,5.8c1.5,2.5,2.2,5.3,2.2,8.6     c0,0.3-0.1,0.5-0.2,0.6c-0.2,0.2-0.3,0.2-0.5,0.2l-3.9,0.2c-0.5,0-0.8-0.2-0.8-0.7v-0.2c0-3.6-1.1-6.5-3.4-8.6     c-2.3-2.2-5.3-3.2-9-3.2c-3.7,0-6.8,1.1-9,3.3c-2.3,2.2-3.4,5-3.4,8.6v21.3c0,3.5,1.1,6.4,3.4,8.6c2.3,2.2,5.3,3.3,9,3.3     c3.7,0,6.8-1.1,9-3.2c2.3-2.2,3.4-5,3.4-8.6v-0.2c0-0.5,0.3-0.7,0.8-0.7l3.9,0.2c0.5,0,0.8,0.2,0.8,0.7c0,3.3-0.7,6.2-2.2,8.7     c-1.5,2.5-3.6,4.4-6.3,5.8c-2.7,1.4-5.8,2.1-9.3,2.1C276.8,64.4,273.7,63.7,271,62.4z"></path>
			<path class="st0" d="M306,17.1c-0.8-0.8-1.2-1.8-1.2-3c0-1.3,0.4-2.3,1.2-3.1c0.8-0.8,1.8-1.2,3-1.2c1.2,0,2.2,0.4,3,1.2     c0.8,0.8,1.2,1.8,1.2,3.1c0,1.2-0.4,2.2-1.2,3c-0.8,0.8-1.8,1.2-3,1.2C307.8,18.3,306.8,17.9,306,17.1z M306.1,62.9V26     c0-0.5,0.3-0.8,0.8-0.8h3.9c0.5,0,0.8,0.3,0.8,0.8v36.9c0,0.5-0.3,0.8-0.8,0.8h-3.9C306.4,63.7,306.1,63.4,306.1,62.9z"></path>
			<path class="st0" d="M339,29.8h-8.6c-0.2,0-0.3,0.1-0.3,0.3v22.4c0,2.4,0.5,4.1,1.6,5.1c1.1,1,2.8,1.5,5.1,1.5h1.9     c0.5,0,0.8,0.3,0.8,0.8V63c0,0.5-0.3,0.8-0.8,0.8c-0.6,0-1.5,0.1-2.8,0.1c-3.6,0-6.4-0.7-8.3-2.1c-1.9-1.4-2.8-3.9-2.8-7.6V30.1     c0-0.2-0.1-0.3-0.3-0.3h-4.6c-0.5,0-0.8-0.3-0.8-0.8v-3c0-0.5,0.3-0.8,0.8-0.8h4.6c0.2,0,0.3-0.1,0.3-0.3v-8.8     c0-0.5,0.3-0.8,0.8-0.8h3.7c0.5,0,0.8,0.3,0.8,0.8V25c0,0.2,0.1,0.3,0.3,0.3h8.6c0.5,0,0.8,0.3,0.8,0.8v3     C339.7,29.6,339.5,29.8,339,29.8z"></path>
			<path class="st0" d="M375,43.4v2.4c0,0.5-0.3,0.8-0.8,0.8h-24.5c-0.2,0-0.3,0.1-0.3,0.3c0.1,2.8,0.3,4.6,0.5,5.4     c0.6,2.3,1.7,4.1,3.6,5.4c1.8,1.3,4.2,2,7,2c2.1,0,4-0.5,5.6-1.4c1.6-1,2.9-2.3,3.8-4.1c0.3-0.5,0.7-0.6,1.1-0.3l3,1.7     c0.4,0.3,0.5,0.6,0.3,1.1c-1.3,2.4-3.2,4.3-5.7,5.7c-2.5,1.4-5.4,2.1-8.7,2.1c-3.6-0.1-6.6-0.9-9-2.6c-2.4-1.7-4.2-4-5.2-7     c-0.9-2.4-1.4-5.9-1.4-10.5c0-2.1,0-3.9,0.1-5.2c0.1-1.3,0.3-2.5,0.6-3.6c0.9-3.3,2.6-5.9,5.2-7.9c2.6-2,5.8-3,9.5-3     c4.6,0,8.2,1.2,10.6,3.5c2.5,2.3,4,5.6,4.6,9.9C374.9,39.5,375,41.3,375,43.4z M353.2,31.4c-1.6,1.3-2.7,3-3.2,5.2     c-0.3,1.1-0.5,2.8-0.6,5.2c0,0.2,0.1,0.3,0.3,0.3h19.7c0.2,0,0.3-0.1,0.3-0.3c-0.1-2.3-0.3-3.9-0.5-4.9c-0.6-2.3-1.7-4.1-3.4-5.4     c-1.7-1.3-3.8-2-6.4-2C356.9,29.4,354.8,30.1,353.2,31.4z"></path>
		</g>
		<g>
			<g>
				<g>
					<path class="st2" d="M7,51.7c0.6,0.1,1.1,0.2,1.8,0.3c29.3,5.8,72.9-1.9,78.5-16.1c4.4-11.5-20.2-19.6-48.9-18.6       c-0.6,0-1.1,0-1.7,0.1C52,19,65.8,25,60.3,34.5C54.3,44.9,28.8,51.8,7,51.7"></path>
				</g>
				<g>
					<path class="st0" d="M71.1,53.2c-5.1,30.8-31.7,12.4-38-9C24,21.9,32.2-6.7,55,10C36.1,1.4,34.1,26.4,42.2,44.3       c6.7,14.9,21.3,24.5,28.3,9.1C70.8,53.3,71,53.3,71.1,53.2"></path>
				</g>
			</g>
		</g>
	</g>
</g>
</svg>