<?xml version="1.0" encoding="UTF-8"?>
<svg id="Ebene_1" xmlns="http://www.w3.org/2000/svg" version="1.1" viewBox="0 0 677.9 123.6">
  <!-- Generator: Adobe Illustrator 29.1.0, SVG Export Plug-In . SVG Version: 2.1.0 Build 142)  -->
  <defs>
    <style>
      .st0 {
        fill: #fff;
      }
    </style>
  </defs>
  <path class="st0" d="M2.9,54.8L53.4,4.3C27,7.3,6.1,28.3,2.9,54.8Z"/>
  <path class="st0" d="M117,68.6l-50.5,50.5c26.4-3,47.3-24,50.5-50.5Z"/>
  <path class="st0" d="M72.4,5.3l-37.3,37.3-11.6,11.7c-1.4,1.4-3.6,1.4-4.9,0-1.4-1.4-3.3-1.1-4.7.2l-11.3,11.3c.4,5.4,1.5,10.6,3.2,15.4L79.6,7.4c-2.3-.9-4.7-1.6-7.2-2.1Z"/>
  <path class="st0" d="M92.7,14.2l-28,28-4,4.1c-1.4,1.4-3.6,1.4-4.9,0-1.4-1.4-3.3-1.1-4.7.2L9.1,88.6c2.1,4,4.6,7.7,7.6,11.1L98,18.4c-1.7-1.5-3.4-2.8-5.2-4.1Z"/>
  <path class="st0" d="M107.3,29l-30.3,30.3-4,4.1c-1.4,1.4-3.6,1.4-4.9,0s-3.3-1.1-4.7.2l-41.4,41.4c3.3,3,7,5.5,11,7.7L110.8,34.8c-1.1-2-2.2-4-3.5-5.8Z"/>
  <path class="st0" d="M114.3,51.3l-2.7,2.8c-1.4,1.4-3.6,1.4-4.9,0s-3.3-1.1-4.7.2l-61.7,61.7c4.8,1.8,10,2.9,15.3,3.3l61.6-61.6c-.2-2.8-.6-5.5-1.1-8.2l-1.9,1.9Z"/>
  <polygon class="st0" points="351 33.3 351 23.4 290.6 23.4 290.6 37.2 330 37.2 290.7 92.5 290.7 102.2 351.1 102.2 351.1 88.5 311.6 88.5 351 33.3"/>
  <rect class="st0" x="230.5" y="72.4" width="16.6" height="29.9"/>
  <rect class="st0" x="247.1" y="58.9" width="32.1" height="13.5"/>
  <polygon class="st0" points="230.5 58.9 247.1 58.9 247.1 37.2 282.7 37.2 282.7 23.4 230.5 23.4 230.5 58.9"/>
  <path class="st0" d="M187.5,73h16.9c0,3.1-.8,5.9-2.2,8.2-1.4,2.5-3.5,4.3-6.2,5.7-2.7,1.4-5.5,2.1-9.6,2.1s-7.8-1-10.8-3c-3-2.1-5.3-5.1-7-8.9-1.6-3.9-2.5-8.5-2.5-14s.8-10.2,2.5-14c1.7-3.9,4.1-6.8,7.2-8.8,3-2.1,6.6-3,10.6-3s4.1.3,5.9.9c1.7.4,3.4,1.3,4.8,2.3,1.4,1,2.6,2.2,3.6,3.7,1,1.4,1.7,3.1,2.3,5h16.9c-.5-4-1.7-7.5-3.7-10.7-1.8-3.3-4.2-6.1-7.3-8.5-3-2.4-6.5-4.2-10.3-5.5-3.9-1.3-5.5-2-12.5-2s-13.2,1.5-18.8,4.8c-5.6,3.1-10.1,7.8-13.3,13.9-3.3,6.1-4.9,13.5-4.9,21.9s1.5,15.5,4.7,21.6c3.1,6.1,7.6,10.7,13.1,14,5.6,3.3,12,5.2,19.4,5.2s12.6-1.4,17.7-4c5.2-2.7,9.2-6.5,12.1-11.5,2.9-5,4.4-10.9,4.4-17.9v-10h-32.9v12.6Z"/>
  <polygon class="st0" points="370.3 40.1 386.1 40.1 386.1 53.4 389.8 53.4 389.8 23.6 386.1 23.6 386.1 36.9 370.3 36.9 370.3 23.6 366.6 23.6 366.6 53.4 370.3 53.4 370.3 40.1"/>
  <path class="st0" d="M410.5,33.2c-.9-.9-2-1.5-3.1-1.9-1.1-.4-2.3-.6-3.5-.6-2,0-3.8.5-5.3,1.5-1.5,1-2.7,2.4-3.5,4.1-.8,1.7-1.2,3.8-1.2,6.1s.4,4.3,1.3,6c.8,1.7,2,3.1,3.6,4,1.6,1,3.4,1.4,5.6,1.4s2.9-.2,4.1-.7c1.2-.5,2.2-1.1,3.1-2,.8-.8,1.4-1.8,1.8-3l-3.3-1c-.3.8-.7,1.4-1.2,2s-1.2.9-1.9,1.2c-.7.3-1.5.4-2.4.4-1.4,0-2.6-.3-3.7-.9-1.1-.6-1.9-1.5-2.5-2.7-.5-1.1-.8-2.3-.9-3.8h16.2v-1.5c0-2.1-.3-3.8-.8-5.3-.6-1.4-1.3-2.6-2.3-3.4ZM398.1,37.5c.5-1.1,1.3-2,2.3-2.6,1-.7,2.2-1,3.5-1s2.5.3,3.5,1c.9.7,1.6,1.6,2.1,2.7.3.9.6,1.8.7,2.9h-12.7c0-1,.3-2,.8-3Z"/>
  <rect class="st0" x="417.3" y="23.6" width="3.4" height="29.8"/>
  <path class="st0" d="M454.8,53.4v-15c0-2.6-.6-4.6-1.9-5.8s-2.9-1.9-4.9-1.9-3,.3-4.1,1c-1.1.7-2,1.6-2.6,2.8h-.2c-.5-1.2-1.3-2.1-2.3-2.8-1-.7-2.2-1-3.7-1s-2.7.3-3.7,1c-1,.7-1.8,1.6-2.3,2.8h-.3v-3.5h-3.3v22.4h3.4v-14c0-1.1.2-2.1.7-2.9s1.1-1.5,1.9-2c.8-.5,1.6-.7,2.5-.7,1.3,0,2.4.4,3.2,1.2.8.8,1.2,1.8,1.2,3.1v15.3h3.5v-14.6c0-1.4.4-2.6,1.3-3.6.9-1,2.1-1.4,3.6-1.4s2.3.4,3.2,1.1c.9.7,1.4,1.9,1.4,3.5v15h3.4Z"/>
  <path class="st0" d="M477.6,53.4v-14.2c0-1.9-.3-3.5-1-4.8-.6-1.2-1.5-2.2-2.7-2.8-1.1-.6-2.5-.9-4-.9s-3.2.3-4.2,1c-1,.7-1.8,1.6-2.4,2.8h-.3v-11h-3.4v29.8h3.4v-13.5c0-1.3.3-2.4.8-3.3.5-.9,1.2-1.6,2.1-2.1s1.9-.7,3-.7c1.6,0,2.9.5,3.8,1.5.9,1,1.4,2.4,1.4,4.1v14h3.4Z"/>
  <path class="st0" d="M500.3,48.4c.9-1.7,1.3-3.8,1.3-6s-.4-4.4-1.3-6.1c-.9-1.7-2-3.1-3.6-4.1s-3.3-1.4-5.3-1.4-3.8.5-5.3,1.4-2.7,2.3-3.6,4.1c-.8,1.7-1.3,3.8-1.3,6.1s.4,4.3,1.3,6c.8,1.7,2,3.1,3.6,4s3.3,1.4,5.3,1.4,3.8-.5,5.3-1.4,2.7-2.3,3.6-4ZM497.5,46.5c-.5,1.3-1.2,2.3-2.2,3.1-1,.8-2.3,1.2-3.8,1.2s-2.8-.4-3.8-1.2c-1-.8-1.7-1.8-2.2-3.1s-.7-2.7-.7-4.2.2-2.9.7-4.2c.5-1.3,1.2-2.3,2.2-3.1,1-.8,2.2-1.2,3.8-1.2s2.8.4,3.8,1.2c1,.8,1.7,1.8,2.2,3.1.5,1.3.7,2.7.7,4.2s-.2,2.9-.7,4.2Z"/>
  <rect class="st0" x="505.4" y="23.6" width="3.4" height="29.8"/>
  <path class="st0" d="M522.5,53.6c.5,0,.9-.2,1.2-.3l-.7-3.1c-.3,0-.6,0-.8.1-.2,0-.5,0-.7,0-1,0-1.8-.3-2.3-.8-.5-.5-.7-1.4-.7-2.6v-13.1h4.8v-2.9h-4.8v-5.3h-3.4v5.3h-3.4v2.9h3.4v14c0,1.7.6,3.1,1.7,4.2,1.1,1.1,2.6,1.6,4.4,1.6s.9,0,1.4-.1Z"/>
  <polygon class="st0" points="543.8 50.2 531.1 50.2 531.1 50 543.4 33.8 543.4 31.1 526.7 31.1 526.7 34.3 539 34.3 539 34.5 526.3 50.8 526.3 53.4 543.8 53.4 543.8 50.2"/>
  <path class="st0" d="M577.9,51.3c1.1-.8,2-1.9,2.7-3.1s1.2-2.6,1.5-4.1h-3.6c-.2,1-.6,2-1.1,2.7-.5.8-1.2,1.5-1.9,2-.8.5-1.6.9-2.5,1.2-.9.3-1.9.4-2.8.4-1.8,0-3.4-.5-4.9-1.4-1.5-.9-2.6-2.3-3.5-4-.9-1.8-1.3-4-1.3-6.5s.4-4.8,1.3-6.6c.9-1.8,2-3.1,3.5-4,1.5-.9,3.1-1.4,4.9-1.4s1.9.1,2.8.4c.9.3,1.7.7,2.5,1.2.8.5,1.4,1.2,1.9,2,.5.8.9,1.7,1.1,2.7h3.6c-.3-1.5-.8-2.9-1.5-4.1s-1.6-2.2-2.7-3.1c-1.1-.8-2.3-1.5-3.6-1.9-1.3-.4-2.7-.7-4.2-.7-2.5,0-4.8.6-6.8,1.9-2,1.2-3.5,3-4.7,5.3-1.1,2.3-1.7,5-1.7,8.2s.6,5.8,1.7,8.1c1.1,2.3,2.7,4.1,4.7,5.3,2,1.2,4.3,1.9,6.8,1.9s2.9-.2,4.2-.7c1.3-.4,2.5-1.1,3.6-1.9Z"/>
  <path class="st0" d="M599.4,53.2c1.2-.5,2.2-1.1,3.1-2,.8-.8,1.4-1.8,1.8-3l-3.3-1c-.3.8-.7,1.4-1.2,2-.5.5-1.2.9-1.9,1.2-.7.3-1.5.4-2.4.4-1.4,0-2.6-.3-3.7-.9-1.1-.6-1.9-1.5-2.5-2.7-.5-1.1-.8-2.3-.9-3.8h16.2v-1.5c0-2.1-.3-3.8-.8-5.3-.6-1.4-1.3-2.6-2.3-3.4-.9-.9-2-1.5-3.1-1.9-1.1-.4-2.3-.6-3.5-.6-2,0-3.8.5-5.3,1.5-1.5,1-2.7,2.4-3.5,4.1-.8,1.7-1.2,3.8-1.2,6.1s.4,4.3,1.3,6c.8,1.7,2,3.1,3.6,4,1.6,1,3.4,1.4,5.6,1.4s2.9-.2,4.1-.7ZM589.1,37.5c.5-1.1,1.3-2,2.3-2.6,1-.7,2.2-1,3.5-1s2.5.3,3.5,1c.9.7,1.6,1.6,2.1,2.7.3.9.6,1.8.7,2.9h-12.7c0-1,.3-2,.8-3Z"/>
  <path class="st0" d="M617.4,33.9c1.6,0,2.8.5,3.8,1.5.9,1,1.4,2.4,1.4,4.1v14h3.4v-14.2c0-1.9-.3-3.5-1-4.7s-1.5-2.2-2.7-2.8c-1.1-.6-2.5-.9-4-.9s-3.1.3-4.1,1c-1.1.7-1.9,1.6-2.4,2.8h-.3v-3.5h-3.3v22.4h3.4v-13.5c0-1.3.2-2.4.8-3.3.5-.9,1.2-1.6,2.1-2.1.9-.5,1.8-.7,2.9-.7Z"/>
  <path class="st0" d="M632.2,48c0,1.7.6,3.1,1.7,4.2,1.1,1.1,2.6,1.6,4.4,1.6s.9,0,1.4-.1c.5,0,.9-.2,1.2-.3l-.7-3.1c-.3,0-.6,0-.8.1-.2,0-.5,0-.7,0-1,0-1.8-.3-2.3-.8-.5-.5-.7-1.4-.7-2.6v-13.1h4.8v-2.9h-4.8v-5.3h-3.4v5.3h-3.4v2.9h3.4v14Z"/>
  <path class="st0" d="M653.5,30.7c-1.3,0-2.5.3-3.6,1-1.1.7-1.8,1.6-2.2,2.7h-.2v-3.4h-3.3v22.4h3.4v-14.1c0-1,.2-1.9.7-2.7.5-.8,1.2-1.4,2-1.9.9-.5,1.8-.7,2.9-.7s.9,0,1.3,0c.4,0,.7,0,.8.1v-3.5c-.2,0-.5,0-.9,0-.4,0-.7,0-.9,0Z"/>
  <path class="st0" d="M675.8,42c0-2.1-.3-3.8-.8-5.3-.6-1.4-1.3-2.6-2.3-3.4-.9-.9-2-1.5-3.1-1.9-1.1-.4-2.3-.6-3.5-.6-2,0-3.8.5-5.3,1.5-1.5,1-2.7,2.4-3.5,4.1-.8,1.7-1.2,3.8-1.2,6.1s.4,4.3,1.3,6c.8,1.7,2,3.1,3.6,4,1.6,1,3.4,1.4,5.6,1.4s2.9-.2,4.1-.7c1.2-.5,2.2-1.1,3.1-2,.8-.8,1.4-1.8,1.8-3l-3.3-1c-.3.8-.7,1.4-1.2,2-.5.5-1.2.9-1.9,1.2-.7.3-1.5.4-2.4.4-1.4,0-2.6-.3-3.7-.9-1.1-.6-1.9-1.5-2.5-2.7-.5-1.1-.8-2.3-.9-3.8h16.2v-1.5ZM660.3,37.5c.5-1.1,1.3-2,2.3-2.6,1-.7,2.2-1,3.5-1s2.5.3,3.5,1c.9.7,1.6,1.6,2.1,2.7.3.9.6,1.8.7,2.9h-12.7c0-1,.3-2,.8-3Z"/>
  <path class="st0" d="M374,71.4c-1.1,0-2.1.2-3,.6-1,.4-1.7,1.1-2.4,1.9-.6.9-.9,1.9-.9,3.2v3.1h-3.6v2.9h3.6v19.5h3.4v-19.5h5v-2.9h-5v-2.2c0-1.1.3-2,.8-2.5.5-.6,1.3-.9,2.5-.9s.9,0,1.2.1c.3,0,.5.2.7.2l1-3c-.3-.1-.7-.2-1.2-.4-.5-.1-1.2-.2-2.1-.2Z"/>
  <path class="st0" d="M392.9,81.4c-1.5-1-3.3-1.4-5.3-1.4s-3.8.5-5.3,1.4-2.7,2.3-3.6,4.1c-.8,1.7-1.3,3.8-1.3,6.1s.4,4.3,1.3,6c.8,1.7,2,3.1,3.6,4s3.3,1.4,5.3,1.4,3.8-.5,5.3-1.4,2.7-2.3,3.6-4c.9-1.7,1.3-3.8,1.3-6s-.4-4.4-1.3-6.1c-.9-1.7-2-3.1-3.6-4.1ZM393.6,95.7c-.5,1.3-1.2,2.3-2.2,3.1-1,.8-2.3,1.2-3.8,1.2s-2.8-.4-3.8-1.2c-1-.8-1.7-1.8-2.2-3.1s-.7-2.7-.7-4.2.2-2.9.7-4.2c.5-1.3,1.2-2.3,2.2-3.1,1-.8,2.2-1.2,3.8-1.2s2.8.4,3.8,1.2c1,.8,1.7,1.8,2.2,3.1.5,1.3.7,2.7.7,4.2s-.2,2.9-.7,4.2Z"/>
  <path class="st0" d="M410.9,79.9c-1.3,0-2.5.3-3.6,1s-1.8,1.6-2.2,2.7h-.2v-3.4h-3.3v22.4h3.4v-14.1c0-1,.2-1.9.7-2.7s1.2-1.4,2-1.9c.9-.5,1.8-.7,2.9-.7s.9,0,1.3,0c.4,0,.7,0,.8.1v-3.5c-.2,0-.5,0-.9,0-.4,0-.7,0-.9,0Z"/>
  <path class="st0" d="M438.6,91h7.8c0,1.7-.4,3.2-1.1,4.5-.7,1.3-1.7,2.4-3,3.1-1.3.7-2.8,1.1-4.5,1.1s-3.5-.5-5-1.4-2.7-2.3-3.5-4c-.9-1.8-1.3-4-1.3-6.5s.4-4.8,1.3-6.6c.9-1.8,2-3.1,3.5-4,1.4-.9,3.1-1.4,4.8-1.4s2.1.1,3,.4c.9.3,1.7.7,2.4,1.3s1.3,1.2,1.9,2c.5.8.9,1.7,1.3,2.7h3.7c-.3-1.4-.8-2.8-1.5-3.9-.7-1.2-1.6-2.2-2.7-3.1-1.1-.9-2.3-1.5-3.6-2s-2.8-.7-4.4-.7c-2.5,0-4.8.6-6.8,1.9s-3.5,3-4.6,5.3c-1.1,2.3-1.7,5-1.7,8.2s.6,5.8,1.7,8.1c1.1,2.3,2.7,4.1,4.7,5.3s4.3,1.9,7,1.9,4.5-.5,6.3-1.5,3.3-2.4,4.3-4.2,1.6-3.9,1.6-6.4v-3.2h-11.4v3.2Z"/>
  <path class="st0" d="M469.7,82.4c-.9-.9-2-1.5-3.1-1.9-1.1-.4-2.3-.6-3.5-.6-2,0-3.8.5-5.3,1.5-1.5,1-2.7,2.4-3.5,4.1-.8,1.7-1.2,3.8-1.2,6.1s.4,4.3,1.3,6c.8,1.7,2,3.1,3.6,4,1.6,1,3.4,1.4,5.6,1.4s2.9-.2,4.1-.7c1.2-.5,2.2-1.1,3.1-2,.8-.8,1.4-1.8,1.8-3l-3.3-1c-.3.8-.7,1.4-1.2,2-.5.5-1.2.9-1.9,1.2-.7.3-1.5.4-2.4.4-1.4,0-2.6-.3-3.7-.9-1.1-.6-1.9-1.5-2.5-2.7-.5-1.1-.8-2.3-.9-3.8h16.2v-1.5c0-2.1-.3-3.8-.8-5.3s-1.3-2.6-2.3-3.4ZM457.4,86.7c.5-1.1,1.3-2,2.3-2.6,1-.7,2.2-1,3.5-1s2.5.3,3.5,1c.9.7,1.6,1.6,2.1,2.7.3.9.6,1.8.7,2.9h-12.7c0-1,.3-2,.8-3Z"/>
  <path class="st0" d="M490.9,81.4c-1.5-1-3.3-1.4-5.3-1.4s-3.8.5-5.3,1.4-2.7,2.3-3.6,4.1c-.8,1.7-1.3,3.8-1.3,6.1s.4,4.3,1.3,6c.8,1.7,2,3.1,3.6,4s3.3,1.4,5.3,1.4,3.8-.5,5.3-1.4,2.7-2.3,3.6-4c.9-1.7,1.3-3.8,1.3-6s-.4-4.4-1.3-6.1c-.9-1.7-2-3.1-3.6-4.1ZM491.5,95.7c-.5,1.3-1.2,2.3-2.2,3.1-1,.8-2.3,1.2-3.8,1.2s-2.8-.4-3.8-1.2c-1-.8-1.7-1.8-2.2-3.1s-.7-2.7-.7-4.2.2-2.9.7-4.2c.5-1.3,1.2-2.3,2.2-3.1,1-.8,2.2-1.2,3.8-1.2s2.8.4,3.8,1.2c1,.8,1.7,1.8,2.2,3.1.5,1.3.7,2.7.7,4.2s-.2,2.9-.7,4.2Z"/>
  <path class="st0" d="M509.7,90.4l-3.3-.8c-1.3-.3-2.3-.7-2.9-1.2-.6-.5-.9-1.2-.9-2s.5-1.7,1.4-2.4c.9-.6,2-1,3.4-1s2.6.3,3.3,1,1.2,1.4,1.5,2.2l3.1-.8c-.5-1.6-1.4-2.9-2.7-3.9-1.3-1-3-1.5-5.2-1.5s-3,.3-4.2.8-2.2,1.3-2.9,2.3c-.7,1-1.1,2.1-1.1,3.4s.5,2.8,1.4,3.8,2.5,1.8,4.5,2.3l3.7.9c2.2.5,3.3,1.6,3.3,3.2s-.5,1.8-1.4,2.5c-1,.7-2.2,1-3.8,1s-2.6-.3-3.4-.9c-.9-.6-1.5-1.5-1.8-2.7l-3.2.8c.4,1.9,1.3,3.3,2.8,4.3,1.5,1,3.4,1.5,5.7,1.5s3.3-.3,4.6-.9c1.3-.6,2.3-1.4,3.1-2.4.7-1,1.1-2.2,1.1-3.4s-.5-2.8-1.5-3.8c-1-1-2.5-1.7-4.5-2.2Z"/>
  <path class="st0" d="M524.9,84.1c1-.7,2.2-1,3.5-1s1.9.2,2.6.6c.7.4,1.3.9,1.8,1.5.5.6.8,1.2.9,1.9h3.4c-.2-1.4-.7-2.6-1.5-3.7-.8-1.1-1.8-1.9-3.1-2.5-1.3-.6-2.7-.9-4.3-.9s-3.8.5-5.3,1.5c-1.5,1-2.7,2.4-3.5,4.1-.8,1.7-1.3,3.8-1.3,6s.4,4.2,1.2,5.9c.8,1.7,2,3.1,3.5,4.1s3.3,1.5,5.4,1.5,3.1-.3,4.4-.9c1.2-.6,2.3-1.5,3-2.5.8-1.1,1.2-2.2,1.4-3.6h-3.4c-.3,1.2-.9,2.2-1.9,2.9-1,.7-2.1,1.1-3.5,1.1s-2.5-.4-3.5-1.1c-1-.7-1.8-1.7-2.3-3-.5-1.3-.8-2.8-.8-4.5s.3-3.2.8-4.4c.6-1.3,1.3-2.2,2.3-2.9Z"/>
  <path class="st0" d="M542.6,71.9c-.7,0-1.2.2-1.7.7-.5.5-.7,1-.7,1.6s.2,1.2.7,1.6c.5.5,1.1.7,1.7.7s1.2-.2,1.7-.7c.5-.5.7-1,.7-1.6s-.2-1.2-.7-1.6c-.5-.5-1.1-.7-1.7-.7Z"/>
  <rect class="st0" x="540.9" y="80.3" width="3.4" height="22.4"/>
  <path class="st0" d="M564.6,82.4c-.9-.9-2-1.5-3.1-1.9-1.1-.4-2.3-.6-3.5-.6-2,0-3.8.5-5.3,1.5-1.5,1-2.7,2.4-3.5,4.1-.8,1.7-1.2,3.8-1.2,6.1s.4,4.3,1.3,6c.8,1.7,2,3.1,3.6,4,1.6,1,3.4,1.4,5.6,1.4s2.9-.2,4.1-.7c1.2-.5,2.2-1.1,3.1-2,.8-.8,1.4-1.8,1.8-3l-3.3-1c-.3.8-.7,1.4-1.2,2-.5.5-1.2.9-1.9,1.2-.7.3-1.5.4-2.4.4-1.4,0-2.6-.3-3.7-.9-1.1-.6-1.9-1.5-2.5-2.7-.5-1.1-.8-2.3-.9-3.8h16.2v-1.5c0-2.1-.3-3.8-.8-5.3s-1.3-2.6-2.3-3.4ZM552.2,86.7c.5-1.1,1.3-2,2.3-2.6,1-.7,2.2-1,3.5-1s2.5.3,3.5,1c.9.7,1.6,1.6,2.1,2.7.3.9.6,1.8.7,2.9h-12.7c0-1,.3-2,.8-3Z"/>
  <path class="st0" d="M585.4,80.9c-1.1-.6-2.5-.9-4-.9s-3.1.3-4.1,1c-1.1.7-1.9,1.6-2.4,2.8h-.3v-3.5h-3.3v22.4h3.4v-13.5c0-1.3.2-2.4.8-3.3.5-.9,1.2-1.6,2.1-2.1.9-.5,1.8-.7,2.9-.7,1.6,0,2.8.5,3.8,1.5.9,1,1.4,2.4,1.4,4.1v14h3.4v-14.2c0-1.9-.3-3.5-1-4.7s-1.5-2.2-2.7-2.8Z"/>
  <path class="st0" d="M599.4,84.1c1-.7,2.2-1,3.5-1s1.9.2,2.6.6c.7.4,1.3.9,1.8,1.5.5.6.8,1.2.9,1.9h3.4c-.2-1.4-.7-2.6-1.5-3.7-.8-1.1-1.8-1.9-3.1-2.5-1.3-.6-2.7-.9-4.3-.9s-3.8.5-5.3,1.5c-1.5,1-2.7,2.4-3.5,4.1-.8,1.7-1.3,3.8-1.3,6s.4,4.2,1.2,5.9c.8,1.7,2,3.1,3.5,4.1s3.3,1.5,5.4,1.5,3.1-.3,4.4-.9c1.2-.6,2.3-1.5,3-2.5.8-1.1,1.2-2.2,1.4-3.6h-3.4c-.3,1.2-.9,2.2-1.9,2.9-1,.7-2.1,1.1-3.5,1.1s-2.5-.4-3.5-1.1c-1-.7-1.8-1.7-2.3-3-.5-1.3-.8-2.8-.8-4.5s.3-3.2.8-4.4c.6-1.3,1.3-2.2,2.3-2.9Z"/>
  <path class="st0" d="M630.9,82.4c-.9-.9-2-1.5-3.1-1.9-1.1-.4-2.3-.6-3.5-.6-2,0-3.8.5-5.3,1.5-1.5,1-2.7,2.4-3.5,4.1-.8,1.7-1.2,3.8-1.2,6.1s.4,4.3,1.3,6c.8,1.7,2,3.1,3.6,4,1.6,1,3.4,1.4,5.6,1.4s2.9-.2,4.1-.7c1.2-.5,2.2-1.1,3.1-2,.8-.8,1.4-1.8,1.8-3l-3.3-1c-.3.8-.7,1.4-1.2,2-.5.5-1.2.9-1.9,1.2-.7.3-1.5.4-2.4.4-1.4,0-2.6-.3-3.7-.9-1.1-.6-1.9-1.5-2.5-2.7-.5-1.1-.8-2.3-.9-3.8h16.2v-1.5c0-2.1-.3-3.8-.8-5.3s-1.3-2.6-2.3-3.4ZM618.5,86.7c.5-1.1,1.3-2,2.3-2.6,1-.7,2.2-1,3.5-1s2.5.3,3.5,1c.9.7,1.6,1.6,2.1,2.7.3.9.6,1.8.7,2.9h-12.7c0-1,.3-2,.8-3Z"/>
  <path class="st0" d="M647.9,90.4l-3.3-.8c-1.3-.3-2.3-.7-2.9-1.2-.6-.5-.9-1.2-.9-2s.5-1.7,1.4-2.4c.9-.6,2-1,3.4-1s2.6.3,3.3,1,1.2,1.4,1.5,2.2l3.1-.8c-.5-1.6-1.4-2.9-2.7-3.9-1.3-1-3-1.5-5.2-1.5s-3,.3-4.2.8-2.2,1.3-2.9,2.3c-.7,1-1.1,2.1-1.1,3.4s.5,2.8,1.4,3.8,2.5,1.8,4.5,2.3l3.7.9c2.2.5,3.3,1.6,3.3,3.2s-.5,1.8-1.4,2.5c-1,.7-2.2,1-3.8,1s-2.6-.3-3.4-.9-1.5-1.5-1.8-2.7l-3.2.8c.4,1.9,1.3,3.3,2.8,4.3,1.5,1,3.4,1.5,5.7,1.5s3.3-.3,4.6-.9c1.3-.6,2.3-1.4,3.1-2.4.7-1,1.1-2.2,1.1-3.4s-.5-2.8-1.5-3.8c-1-1-2.5-1.7-4.5-2.2Z"/>
</svg>