<?xml version="1.0" standalone="no"?>
<!DOCTYPE svg PUBLIC "-//W3C//DTD SVG 20010904//EN"
 "http://www.w3.org/TR/2001/REC-SVG-20010904/DTD/svg10.dtd">
<svg version="1.0" xmlns="http://www.w3.org/2000/svg"
 width="1167.000000pt" height="449.000000pt" viewBox="0 0 1167.000000 449.000000"
 preserveAspectRatio="xMidYMid meet">

<g transform="translate(0.000000,449.000000) scale(0.100000,-0.100000)"
fill="#000000" stroke="none">
<path d="M441 4338 c-63 -14 -125 -79 -140 -147 -16 -73 -16 -3198 0 -3271 13
-62 57 -115 114 -141 37 -17 78 -19 536 -19 l497 0 60 -83 c225 -310 588 -487
997 -487 447 0 818 195 1052 552 153 233 220 474 210 753 -6 153 -20 230 -68
375 -55 167 -125 290 -242 427 -82 97 -159 164 -262 229 l-75 47 0 466 0 466
-420 420 -420 420 -897 2 c-566 1 -914 -2 -942 -9z m1729 -548 c5 -379 6 -384
57 -418 24 -15 60 -17 343 -18 173 -1 325 -2 338 -3 l22 -1 0 -346 c0 -326 -1
-346 -17 -339 -46 17 -188 46 -278 55 -159 17 -375 -6 -521 -55 -354 -117
-659 -423 -779 -778 -53 -158 -68 -258 -69 -442 -1 -203 20 -319 89 -487 7
-17 -17 -18 -413 -18 -231 0 -427 3 -436 6 -15 6 -16 156 -16 1600 l0 1593 48
3 c26 2 403 4 837 3 l790 0 5 -355z m425 -20 l230 -230 -232 0 -232 0 -3 198
c-3 168 0 262 6 262 0 0 105 -103 231 -230z m133 -1274 c2 -3 -40 -49 -95
-103 -210 -210 -355 -477 -412 -759 l-18 -89 -147 -3 c-121 -2 -146 0 -146 12
0 7 13 66 29 130 75 296 236 546 486 754 l89 75 105 -7 c57 -3 106 -8 109 -10z
m-571 -78 c-212 -208 -386 -552 -414 -820 l-6 -58 -145 0 -144 0 7 48 c58 387
309 722 649 864 132 54 139 50 53 -34z m860 -15 c37 -20 80 -45 96 -56 l27
-19 -74 -79 c-160 -170 -305 -441 -341 -639 -14 -76 3 -70 -196 -70 l-179 0 6
28 c49 220 133 400 269 580 103 136 266 291 307 292 10 0 48 -17 85 -37z m309
-263 c126 -147 226 -366 250 -551 l7 -49 -363 0 -362 0 6 34 c21 110 94 271
178 393 71 103 206 245 224 235 7 -4 34 -32 60 -62z m-1596 -834 c0 -259 130
-617 290 -799 18 -21 28 -37 23 -37 -17 0 -146 81 -208 130 -182 145 -328 397
-370 637 -8 47 -15 99 -15 114 l0 29 140 0 140 0 0 -74z m460 29 c0 -68 19
-231 36 -305 44 -195 141 -408 253 -557 l70 -93 -80 0 c-49 0 -90 5 -107 14
-39 20 -211 201 -260 273 -121 178 -202 435 -202 639 l0 74 145 0 145 0 0 -45z
m503 -61 c13 -198 68 -404 149 -554 55 -100 136 -220 150 -220 51 0 -126 -79
-214 -95 -35 -7 -38 -5 -103 72 -137 161 -225 321 -281 512 -29 101 -54 252
-54 334 l0 57 173 0 174 0 6 -106z m887 73 c0 -148 -90 -386 -208 -550 -59
-82 -219 -240 -237 -234 -20 6 -126 164 -169 252 -75 151 -118 310 -130 483
l-6 82 375 0 375 0 0 -33z"/>
<path d="M809 3511 c-20 -20 -29 -40 -29 -61 0 -37 23 -85 45 -94 9 -3 239 -6
511 -6 427 0 499 2 525 15 55 29 65 100 20 146 l-29 29 -507 0 -507 0 -29 -29z"/>
<path d="M809 2921 c-45 -45 -36 -126 18 -150 31 -14 880 -15 918 -1 31 12 59
72 50 107 -3 14 -17 36 -30 49 l-24 24 -451 0 -452 0 -29 -29z"/>
<path d="M4122 3083 l3 -928 598 0 598 0 2 158 2 157 -407 0 -408 0 0 240 0
240 353 0 352 0 0 160 0 160 -352 0 -353 0 0 210 0 210 408 0 407 0 0 160 0
160 -603 0 -602 0 2 -927z"/>
<path d="M5632 3083 l3 -928 198 -3 197 -2 0 350 0 350 134 0 134 0 39 -67
c22 -38 113 -195 202 -350 l163 -283 207 0 c114 0 210 2 213 5 4 4 -336 582
-424 721 -5 7 21 25 69 49 135 67 249 209 283 353 17 75 15 254 -5 326 -53
197 -196 332 -409 386 -74 19 -112 20 -543 20 l-463 0 2 -927z m871 608 c48
-15 112 -72 140 -125 30 -56 31 -203 3 -256 -65 -123 -145 -149 -448 -150
l-168 0 0 276 0 276 218 -5 c128 -2 233 -9 255 -16z"/>
<path d="M7387 3083 l3 -928 187 0 188 0 -1 643 c-1 367 2 642 7 642 5 0 9 -4
9 -9 0 -5 103 -172 228 -372 126 -200 286 -456 357 -569 70 -113 148 -235 172
-273 l44 -67 217 2 217 3 2 928 2 927 -195 0 -194 0 0 -640 c0 -369 -4 -640
-9 -640 -5 0 -11 7 -15 15 -6 16 -116 194 -439 710 -111 176 -233 372 -272
435 l-72 115 -219 3 -219 2 2 -927z"/>
<path d="M9402 3083 l3 -928 195 0 195 0 3 928 2 927 -200 0 -200 0 2 -927z"/>
<path d="M10170 3080 l0 -930 611 2 611 3 1 157 2 158 -412 0 -413 0 0 240 0
240 355 -2 355 -3 0 163 0 162 -355 0 -355 0 0 210 0 210 405 0 405 0 0 160 0
160 -605 0 -605 0 0 -930z"/>
<path d="M5410 1465 l0 -265 35 0 35 0 0 125 c0 122 1 125 28 155 37 42 91 51
120 20 27 -29 37 -107 28 -217 l-6 -83 40 0 40 0 0 135 c0 199 -23 240 -135
240 -53 0 -68 -4 -89 -24 l-26 -24 0 101 0 102 -35 0 -35 0 0 -265z"/>
<path d="M8620 1465 l0 -265 35 0 35 0 0 120 c0 133 10 168 55 188 37 17 69
15 96 -7 23 -18 24 -26 27 -160 l4 -141 34 0 34 0 0 141 c0 157 -10 193 -59
222 -43 25 -111 22 -155 -8 l-36 -24 0 99 0 100 -35 0 -35 0 0 -265z"/>
<path d="M4100 1460 l0 -260 160 0 160 0 0 30 0 29 -117 3 -118 3 -3 83 -3 82
111 0 110 0 0 35 0 35 -110 0 -110 0 0 75 0 75 120 0 120 0 0 35 0 35 -160 0
-160 0 0 -260z"/>
<path d="M6000 1460 l0 -260 40 0 40 0 0 106 0 105 52 -3 51 -3 61 -102 61
-102 43 -1 c23 0 42 3 42 6 0 4 -30 54 -67 112 -51 80 -64 107 -53 110 8 3 32
22 53 42 35 35 37 41 37 100 0 57 -3 65 -33 95 -43 43 -90 55 -219 55 l-108 0
0 -260z m254 169 c20 -15 26 -29 26 -58 0 -69 -47 -101 -152 -101 l-48 0 0 90
0 90 74 0 c59 0 78 -4 100 -21z"/>
<path d="M9220 1460 l0 -260 35 0 35 0 0 197 c0 165 2 195 13 183 8 -8 56 -82
107 -165 131 -211 134 -215 176 -215 l34 0 0 260 0 260 -41 0 -40 0 6 -170 c4
-93 4 -179 0 -190 -6 -19 -11 -15 -39 32 -18 29 -66 107 -106 173 -95 155 -95
155 -142 155 l-38 0 0 -260z"/>
<path d="M5198 1673 c-26 -4 -28 -8 -28 -53 0 -46 -2 -49 -27 -52 -22 -2 -28
-8 -28 -28 0 -20 6 -26 28 -28 l27 -3 0 -119 c0 -65 4 -130 10 -145 13 -35 70
-58 121 -50 33 6 39 11 39 31 0 21 -5 24 -34 24 -56 0 -66 25 -66 157 l0 113
50 0 c47 0 50 2 50 25 0 23 -3 25 -50 25 l-50 0 0 55 c0 30 -3 54 -7 54 -5 -1
-20 -4 -35 -6z"/>
<path d="M10193 1673 c-20 -4 -23 -11 -23 -54 0 -48 -1 -49 -30 -49 -25 0 -30
-4 -30 -25 0 -24 8 -29 42 -26 15 2 17 -14 20 -137 3 -120 6 -143 22 -161 22
-24 72 -36 115 -26 24 5 31 12 31 31 0 21 -5 24 -34 24 -60 0 -67 16 -64 149
l3 116 45 0 c42 0 45 2 48 28 3 26 2 27 -47 27 l-51 0 0 55 c0 57 0 57 -47 48z"/>
<path d="M4548 1558 c-33 -19 -58 -53 -58 -78 0 -21 59 -10 84 15 50 50 136
22 136 -44 0 -28 0 -28 -72 -33 -89 -6 -135 -28 -154 -73 -21 -50 -18 -70 17
-109 22 -26 41 -37 73 -41 47 -7 112 14 122 39 9 23 26 8 19 -15 -6 -16 -1
-19 32 -19 l38 0 -5 158 c-3 109 -9 164 -18 175 -41 48 -151 62 -214 25z m162
-219 c0 -43 -47 -89 -91 -89 -57 0 -88 51 -56 92 14 19 36 25 100 27 46 1 47
0 47 -30z"/>
<path d="M4980 1549 l-30 -32 0 27 c0 23 -4 26 -35 26 l-35 0 0 -185 0 -185
34 0 34 0 4 131 c3 129 3 131 31 155 16 14 41 24 58 24 27 0 29 3 29 35 0 32
-2 35 -30 35 -20 0 -39 -10 -60 -31z"/>
<path d="M6545 1573 c-59 -15 -115 -107 -115 -188 0 -127 93 -209 216 -190 47
7 114 59 114 88 0 29 -42 28 -77 -3 -35 -31 -72 -38 -117 -20 -27 10 -56 56
-56 90 0 19 6 20 130 20 l130 0 0 38 c0 47 -36 119 -72 146 -27 19 -112 30
-153 19z m126 -84 c53 -57 38 -69 -82 -69 -73 0 -79 1 -79 21 0 11 13 34 29
50 42 41 92 40 132 -2z"/>
<path d="M6905 1567 c-62 -29 -85 -91 -55 -147 14 -25 76 -55 138 -65 38 -6
72 -33 72 -57 0 -23 -43 -48 -81 -48 -33 0 -46 6 -67 30 -18 20 -36 30 -55 30
-27 0 -29 -2 -22 -27 20 -81 128 -116 222 -74 48 22 66 50 66 103 0 57 -30 83
-116 103 -82 19 -97 28 -97 61 0 48 94 62 128 19 14 -17 30 -25 51 -25 41 0
40 20 -3 67 -30 33 -39 37 -92 40 -36 2 -71 -2 -89 -10z"/>
<path d="M7271 1563 c-105 -52 -123 -249 -31 -327 84 -70 220 -53 265 34 14
27 13 28 -11 33 -17 3 -36 -4 -61 -24 -71 -57 -156 -27 -178 63 l-7 27 138 3
139 3 -3 45 c-5 60 -39 119 -82 142 -43 23 -123 23 -169 1z m140 -56 c20 -15
39 -51 39 -71 0 -13 -15 -16 -94 -16 -52 0 -97 4 -100 8 -8 14 27 74 48 82 31
13 89 11 107 -3z"/>
<path d="M7665 1564 c-36 -18 -64 -52 -65 -76 0 -29 58 -24 82 7 15 19 29 25
57 25 44 0 68 -21 77 -67 l6 -30 -75 -6 c-112 -8 -155 -36 -163 -104 -13 -106
131 -165 210 -86 l26 26 0 -27 c0 -23 4 -26 35 -26 l35 0 0 135 c0 155 -11
193 -62 225 -40 24 -120 27 -163 4z m146 -243 c-14 -47 -43 -71 -86 -71 -59 0
-90 50 -56 91 15 18 32 25 77 29 33 3 63 2 68 -2 6 -4 5 -23 -3 -47z"/>
<path d="M8008 1573 c-16 -4 -18 -22 -18 -189 l0 -184 33 0 32 0 3 123 c3 143
13 166 80 181 39 9 42 12 42 43 0 30 -3 33 -29 33 -19 0 -40 -10 -59 -30 -34
-33 -47 -38 -38 -14 6 16 -10 45 -23 43 -3 -1 -14 -3 -23 -6z"/>
<path d="M8314 1566 c-17 -8 -44 -31 -60 -52 -27 -35 -29 -43 -29 -130 0 -108
13 -134 86 -172 91 -48 206 -6 234 86 6 20 3 22 -28 22 -25 0 -37 -6 -46 -24
-24 -44 -88 -59 -129 -30 -52 36 -69 136 -34 204 30 62 125 68 159 10 14 -24
24 -30 51 -30 30 0 33 2 27 23 -26 88 -138 133 -231 93z"/>
<path d="M9802 1563 c-57 -28 -102 -108 -102 -183 0 -151 158 -239 281 -157
119 78 97 297 -34 346 -41 16 -107 13 -145 -6z m143 -67 c55 -55 55 -158 -1
-213 -44 -45 -84 -45 -130 1 -32 32 -34 38 -34 100 0 59 3 69 31 101 26 29 38
35 70 35 29 0 47 -7 64 -24z"/>
<path d="M10471 1563 c-29 -15 -71 -64 -71 -85 0 -20 66 -6 89 17 16 18 34 25
60 25 44 0 65 -20 76 -67 l7 -33 -54 0 c-114 0 -188 -45 -188 -115 0 -102 135
-152 212 -79 l28 28 0 -27 c0 -24 4 -27 35 -27 l35 0 0 138 c0 158 -12 195
-70 224 -44 22 -115 23 -159 1z m159 -208 c0 -29 -28 -83 -50 -95 -11 -6 -37
-10 -58 -8 -28 2 -40 10 -52 30 -28 50 18 88 108 88 40 0 52 -3 52 -15z"/>
<path d="M10917 1569 c-10 -6 -27 -25 -38 -42 l-19 -32 0 38 c0 36 -1 37 -35
37 l-35 0 0 -185 0 -185 35 0 35 0 0 105 c0 67 5 118 14 138 16 38 55 67 91
67 22 0 25 4 25 35 0 32 -3 35 -27 35 -16 0 -36 -5 -46 -11z"/>
<path d="M11050 1565 c0 -7 27 -88 61 -181 62 -174 67 -206 35 -249 -7 -10
-26 -18 -42 -19 -25 -1 -29 -5 -32 -35 l-3 -34 48 6 c66 7 88 36 146 194 73
199 115 322 111 325 -2 2 -19 2 -39 0 l-35 -4 -40 -124 c-22 -68 -40 -131 -40
-140 0 -33 -12 -5 -58 133 l-47 138 -32 1 c-20 1 -33 -4 -33 -11z"/>
<path d="M4190 887 c-31 -15 -60 -71 -60 -114 0 -30 -3 -33 -30 -33 -25 0 -30
-4 -30 -25 0 -21 5 -25 30 -25 l30 0 0 -150 0 -150 35 0 35 0 0 150 0 150 45
0 c41 0 45 2 45 25 0 23 -4 25 -45 25 -44 0 -45 1 -45 31 0 49 16 69 55 69 26
0 35 5 40 21 5 14 2 25 -6 30 -20 13 -70 11 -99 -4z"/>
<path d="M5768 889 c-30 -12 -68 -79 -68 -122 0 -23 -4 -27 -30 -27 -25 0 -30
-4 -30 -25 0 -21 5 -25 30 -25 l30 0 0 -150 0 -150 35 0 34 0 3 148 3 147 43
3 c37 3 42 6 42 28 0 22 -4 24 -45 24 -43 0 -45 2 -45 28 0 44 26 72 66 72 33
0 35 2 32 28 -3 23 -8 27 -38 29 -19 1 -47 -3 -62 -8z"/>
<path d="M5130 640 l0 -250 33 0 32 0 0 250 0 250 -32 0 -33 0 0 -250z"/>
<path d="M7730 870 c-16 -30 4 -60 40 -60 20 0 31 6 35 20 11 35 -3 60 -35 60
-19 0 -33 -7 -40 -20z"/>
<path d="M8883 878 c-24 -11 -63 -82 -63 -112 0 -20 26 -74 48 -99 14 -16 14
-19 -9 -35 -61 -43 -89 -100 -75 -155 23 -93 165 -126 262 -61 l37 25 26 -25
c22 -21 37 -26 76 -26 l49 0 -52 53 -53 53 31 58 c39 74 39 96 2 96 -25 0 -31
-7 -51 -55 -13 -31 -26 -55 -30 -53 -4 2 -26 24 -50 51 l-44 47 41 38 c71 66
79 137 21 186 -25 22 -40 26 -87 25 -31 0 -67 -5 -79 -11z m119 -55 c28 -25
23 -70 -11 -104 -38 -37 -57 -37 -81 4 -26 41 -25 65 2 94 25 27 64 30 90 6z
m-17 -275 l58 -62 -29 -23 c-38 -30 -101 -31 -132 -3 -32 30 -30 89 4 124 15
14 30 26 34 26 4 0 34 -28 65 -62z"/>
<path d="M9440 640 l0 -250 155 0 155 0 0 30 0 30 -117 0 -118 0 3 80 4 80 99
0 99 0 0 30 0 30 -100 0 -100 0 0 75 0 75 110 0 110 0 0 35 0 35 -150 0 -150
0 0 -250z"/>
<path d="M10052 795 c2 -52 2 -95 1 -95 -1 0 -13 11 -27 25 -20 20 -35 25 -72
25 -97 0 -149 -64 -149 -185 0 -85 22 -135 72 -166 43 -27 113 -22 147 10 28
26 36 26 36 1 0 -16 7 -20 30 -20 l30 0 0 250 0 250 -36 0 -35 0 3 -95z m-28
-130 c68 -73 23 -225 -66 -225 -81 0 -118 147 -57 225 28 35 90 35 123 0z"/>
<path d="M10220 876 c-6 -8 -10 -25 -8 -38 2 -18 10 -24 36 -26 36 -4 48 13
38 53 -7 29 -45 35 -66 11z"/>
<path d="M10610 870 c-16 -30 4 -60 40 -60 20 0 31 6 35 20 11 35 -3 60 -35
60 -19 0 -33 -7 -40 -20z"/>
<path d="M7528 833 c-26 -4 -28 -8 -28 -49 0 -40 -2 -44 -25 -44 -20 0 -25 -5
-25 -25 0 -20 5 -25 24 -25 24 0 24 0 28 -130 3 -146 12 -165 81 -177 55 -9
89 3 85 30 -2 17 -11 23 -38 25 -57 6 -60 13 -60 138 l0 114 45 0 c41 0 45 2
45 25 0 23 -4 25 -45 25 l-45 0 0 50 c0 28 -3 49 -7 49 -5 -1 -20 -4 -35 -6z"/>
<path d="M10408 833 c-12 -3 -18 -17 -20 -46 -3 -37 -6 -42 -30 -45 -22 -3
-28 -9 -28 -28 0 -20 5 -24 30 -24 l30 0 0 -119 c0 -66 4 -131 9 -144 12 -30
57 -49 107 -45 34 3 39 6 42 31 3 26 1 27 -38 27 -53 0 -60 19 -60 151 l0 99
51 0 c49 0 50 1 47 27 -3 26 -5 27 -50 24 l-48 -3 0 51 c0 52 -3 55 -42 44z"/>
<path d="M4395 736 c-86 -38 -122 -170 -72 -266 30 -59 65 -82 129 -88 69 -5
117 14 154 64 26 34 29 45 29 119 0 70 -3 86 -25 118 -14 20 -39 44 -57 52
-38 18 -117 19 -158 1z m126 -56 c47 -26 64 -125 31 -189 -35 -71 -129 -71
-164 -1 -31 62 -16 163 29 189 23 13 79 14 104 1z"/>
<path d="M4715 742 c-3 -3 -5 -83 -5 -179 l0 -173 34 0 34 0 4 120 c3 114 4
121 30 146 16 17 38 27 57 28 28 1 31 4 31 34 0 29 -3 32 -31 32 -20 0 -40
-10 -60 -29 -29 -29 -29 -29 -29 -6 0 18 -7 24 -30 27 -17 3 -32 2 -35 0z"/>
<path d="M5405 738 c-11 -6 -26 -18 -32 -26 -11 -14 -13 -13 -13 6 0 18 -6 22
-35 22 l-35 0 0 -175 0 -175 35 0 35 0 0 115 c0 152 16 185 88 185 60 0 72
-31 72 -179 l0 -121 30 0 30 0 0 149 0 149 -29 31 c-25 27 -36 31 -78 31 -26
0 -57 -6 -68 -12z"/>
<path d="M5972 733 c-125 -61 -115 -301 14 -343 48 -16 129 -8 162 17 15 10
37 39 50 64 30 57 28 163 -4 206 -52 70 -146 94 -222 56z m130 -54 c63 -34 62
-195 -1 -229 -27 -14 -82 -12 -103 4 -39 29 -59 117 -38 170 22 59 87 84 142
55z"/>
<path d="M6390 720 l-30 -32 0 26 c0 23 -4 26 -32 26 l-33 0 0 -175 0 -175 33
0 32 0 0 100 c0 101 14 159 41 176 7 4 29 10 49 14 31 5 35 9 35 35 0 27 -4
30 -33 33 -26 3 -39 -3 -62 -28z"/>
<path d="M6550 743 c-1 -5 -2 -86 -3 -180 l-2 -173 32 0 31 0 4 124 c3 116 5
126 27 150 32 34 83 35 105 4 13 -18 16 -51 16 -150 l0 -128 30 0 30 0 0 110
c0 145 22 190 94 190 46 0 56 -31 56 -172 l0 -128 35 0 35 0 0 135 c0 188 -20
225 -125 225 -35 0 -49 -6 -71 -28 l-27 -27 -28 27 c-38 38 -104 39 -148 2
l-31 -26 0 26 c0 22 -4 26 -30 26 -16 0 -30 -3 -30 -7z"/>
<path d="M7179 727 c-34 -23 -62 -64 -53 -79 11 -17 57 -7 75 16 23 30 62 40
92 25 29 -16 37 -28 37 -60 0 -25 -3 -26 -65 -32 -96 -9 -140 -37 -151 -94
-13 -70 35 -123 111 -123 36 0 95 26 95 42 0 4 5 8 10 8 6 0 10 -9 10 -20 0
-16 7 -20 30 -20 l30 0 0 135 c0 145 -8 179 -52 209 -35 25 -128 21 -169 -7z
m151 -208 c0 -37 -47 -89 -82 -89 -50 0 -84 49 -60 87 12 18 52 32 100 32 40
1 42 0 42 -30z"/>
<path d="M7949 730 c-96 -51 -110 -233 -24 -309 82 -72 220 -42 261 56 8 18
14 61 14 95 0 113 -61 178 -165 178 -29 -1 -65 -9 -86 -20z m139 -57 c60 -38
55 -189 -7 -223 -25 -13 -67 -13 -92 0 -50 28 -68 153 -28 204 37 47 74 53
127 19z"/>
<path d="M8377 730 c-30 -24 -37 -25 -37 -5 0 10 -11 15 -35 15 l-35 0 0 -175
0 -175 35 0 35 0 0 121 c0 120 0 121 29 150 21 21 39 29 65 29 57 0 66 -23 66
-172 l0 -128 35 0 35 0 0 135 c0 145 -8 179 -52 209 -32 23 -109 21 -141 -4z"/>
<path d="M10884 740 c-12 -5 -25 -13 -29 -19 -10 -17 -25 -13 -19 4 5 12 -2
15 -30 15 l-36 0 0 -175 0 -175 35 0 35 0 0 119 c0 114 1 121 26 150 21 25 34
31 65 31 56 0 62 -19 60 -172 l-2 -128 36 0 36 0 -3 156 -3 156 -28 24 c-21
18 -39 24 -75 23 -26 0 -57 -4 -68 -9z"/>
<path d="M11203 730 c-59 -36 -88 -137 -63 -224 30 -107 150 -146 227 -74 22
20 23 21 23 2 0 -42 -22 -95 -46 -110 -34 -23 -112 -14 -135 15 -11 13 -29 21
-48 21 -36 0 -37 -4 -12 -46 40 -65 159 -82 238 -32 61 37 66 61 64 316 l-1
142 -29 0 c-20 0 -32 -6 -36 -19 -5 -18 -7 -18 -30 5 -31 31 -105 33 -152 4z
m154 -65 c76 -86 1 -245 -97 -205 -53 22 -76 102 -50 176 22 64 102 80 147 29z"/>
<path d="M7730 565 l0 -175 35 0 35 0 0 175 0 175 -35 0 -35 0 0 -175z"/>
<path d="M10210 565 l0 -175 35 0 35 0 0 175 0 175 -35 0 -35 0 0 -175z"/>
<path d="M10610 565 l0 -175 35 0 35 0 0 175 0 175 -35 0 -35 0 0 -175z"/>
</g>
</svg>
